<?xml version="1.0" standalone="no"?>
<!DOCTYPE svg PUBLIC "-//W3C//DTD SVG 20010904//EN"
 "http://www.w3.org/TR/2001/REC-SVG-20010904/DTD/svg10.dtd">
<svg version="1.0" xmlns="http://www.w3.org/2000/svg"
 width="241.000000pt" height="171.000000pt" viewBox="0 0 241.000000 171.000000"
 preserveAspectRatio="xMidYMid meet">

<g transform="translate(0.000000,171.000000) scale(0.100000,-0.100000)"
fill="#808080" stroke="none">
<path d="M1042 1611 l-42 -6 -104 -220 c-125 -269 -155 -332 -236 -507 -35
-76 -66 -138 -69 -138 -4 0 -81 159 -171 353 -90 193 -181 389 -203 435 l-38
82 -55 0 -54 0 2 -697 3 -698 55 0 55 0 5 540 5 540 27 -55 c14 -30 98 -209
185 -397 88 -188 166 -351 174 -362 13 -19 28 9 204 390 105 226 193 413 198
415 4 3 7 -211 7 -475 l0 -481 -375 0 -375 0 0 -54 0 -53 37 -7 c21 -3 217 -6
436 -6 l397 0 -2 702 c-2 458 -6 702 -13 703 -5 1 -29 -1 -53 -4z"/>
<path d="M1271 1583 c6 -16 101 -275 211 -578 295 -814 301 -830 305 -834 1
-2 5 -2 8 0 2 3 119 320 259 705 140 384 258 707 261 717 7 16 -17 17 -424 17
l-432 0 3 -52 3 -53 343 -3 c214 -1 342 -6 342 -12 0 -12 -348 -971 -355 -978
-3 -3 -7 -3 -9 -1 -2 2 -93 250 -202 552 l-199 547 -62 0 -63 0 11 -27z"/>
</g>
</svg>
